# xmcd CD database file
#
# Track frame offsets:
#	182
#	15067
#	28725
#	45072
#	60327
#	78277
#	91407
#	107832
#	123820
#	136672
#	150000
#	167267
#
# Disc length: 2475 seconds
#
# Revision: 10
# Processed by: cddbd v1.5.2PL0 Copyright (c) Steve Scherf et al.
# Submitted via: CDex 1.70beta2
#
DISCID=6909a90c
DTITLE=Various Artist - Super Hits Of The '70s Have A Nice Day Vol 15
DYEAR=1990
DGENRE=Rock/Pop
TTITLE0=Dwight Twilley Band - I'm On Fire
TTITLE1=Hamilton, Joe Frank, and Reynolds - Fallin' In Love
TTITLE2=Johnny Wakelin and The Kinshasa Band - Black Superman 'Muhammad Ali'
TTITLE3=Jessi Colter - I'm Not Lisa
TTITLE4=Janis Ian - At Seventeen
TTITLE5=David Geddes - Run Joey Run
TTITLE6=Austin Roberts - Rocky
TTITLE7=Pete Wingfield - Eighteen With A Bullet
TTITLE8=Jigsaw - Sky High
TTITLE9=Bay City Rollers - Saturday Night
TTITLE10=C.W. McCall - Convoy
TTITLE11=Hot Chocolate - You Sexy Thing
EXTD=YEAR: 1990
EXTT0=
EXTT1=
EXTT2=
EXTT3=
EXTT4=
EXTT5=
EXTT6=
EXTT7=
EXTT8=
EXTT9=
EXTT10=
EXTT11=
PLAYORDER=
